# xmcd
#
# Track frame offsets: 
#        152
#        15282
#        36534
#        52281
#        69970
#        87925
#        101985
#        119795
#        137293
#        155052
#
# Disc length: 2302 seconds
#
# Revision: 0
# Processed by: cddbd v1.5.2PL0 Copyright (c) Steve Scherf et al.
# Submitted via: ExactAudioCopy v0.95b4
#
DISCID=8c08fc0a
DTITLE=Miguel Bicca - Costeiro
DYEAR=1900
DGENRE=National Folk
TTITLE0=Rios e Rumos
TTITLE1=Viramato
TTITLE2=Linha de Mão
TTITLE3=Surungo
TTITLE4=Costeiro
TTITLE5=São as Armas que Conheço
TTITLE6=Janaína
TTITLE7=Indicações
TTITLE8=Fogo Morto
TTITLE9=Por Estas Bandas
EXTD=
EXTT0=
EXTT1=
EXTT2=
EXTT3=
EXTT4=
EXTT5=
EXTT6=
EXTT7=
EXTT8=
EXTT9=
PLAYORDER=
